<svg id="Layer_1" data-name="Layer 1" xmlns="http://www.w3.org/2000/svg" xmlns:xlink="http://www.w3.org/1999/xlink" viewBox="0 0 712 238"><defs><style>.cls-1{fill:url(#linear-gradient);}.cls-2{fill:url(#linear-gradient-2);}</style><linearGradient id="linear-gradient" x1="14.57327" y1="183.50902" x2="201.66599" y2="75.49098" gradientUnits="userSpaceOnUse"><stop offset="0" stop-color="#ffb593"/><stop offset="0.8" stop-color="#f5322d"/></linearGradient><linearGradient id="linear-gradient-2" x1="197.99697" y1="32.75179" x2="235.24228" y2="11.24821" gradientUnits="userSpaceOnUse"><stop offset="0.2" stop-color="#f5322d"/><stop offset="1" stop-color="#ffb593"/></linearGradient></defs><title>logo</title><path d="M355.04736,166.15186q-11.647,11.37085-28.78467,11.37109-17.13867,0-28.78418-11.37109Q285.83228,154.781,285.833,137.80713q0-16.97388,11.64551-28.34473,11.644-11.37085,28.78418-11.37109,17.13867,0,28.78467,11.37109,11.64331,11.37085,11.64551,28.34473Q366.69287,154.781,355.04736,166.15186Zm-9.50342-48.06494a26.92857,26.92857,0,0,0-38.562,0,28.681,28.681,0,0,0,0,39.44092,26.92857,26.92857,0,0,0,38.562,0,28.681,28.681,0,0,0,0-39.44092Z"/><path d="M393.60889,145.11328v31.64063H381.3042V118.30664h12.30469v10.65674a19.50358,19.50358,0,0,1,7.96533-8.45947,22.583,22.583,0,0,1,11.48047-3.07617q13.84277,0,18.78662,11.42578,8.6792-11.425,21.64355-11.42578,9.8877,0,15.98438,6.04248,6.09961,6.04321,6.09766,17.46826v35.81543H463.26221V144.67383q0-16.1499-13.40234-16.1499a16.25308,16.25308,0,0,0-10.93164,4.00977q-4.67139,4.01221-4.88965,11.70068v32.51953H421.73389V144.67383q0-8.34814-2.96631-12.25-2.96631-3.89795-9.33838-3.8999a16.10413,16.10413,0,0,0-11.09619,4.22949Q393.60815,136.98389,393.60889,145.11328Z"/><path d="M546.0874,152.91357H500.2749a13.305,13.305,0,0,0,5.82227,10.272,20.43,20.43,0,0,0,12.30469,3.90039q10.98486,0,16.69922-6.92139l7.03125,7.69043q-9.44971,9.7793-24.60937,9.77783a29.28427,29.28427,0,0,1-20.92871-8.18506q-8.62646-8.18262-8.624-21.97266,0-13.78564,8.78906-21.91748a29.49413,29.49413,0,0,1,20.709-8.12988,29.99116,29.99116,0,0,1,20.26953,7.1958q8.34814,7.19678,8.34961,19.83057Zm-45.8125-9.668h33.50781q0-7.35937-4.61426-11.31592a16.86519,16.86519,0,0,0-11.37109-3.95508,19.46366,19.46366,0,0,0-12.13965,4.11963A13.30126,13.30126,0,0,0,500.2749,143.24561Z"/><path d="M565.105,169.2832q-8.23975-8.34814-8.23926-21.97266,0-13.62158,8.459-21.75293a28.08891,28.08891,0,0,1,20.16016-8.12988q11.69971,0,18.8418,9.8877V95.23486h12.30469v81.519H604.32666v-8.78906q-6.81445,9.6687-19.88574,9.668A26.30052,26.30052,0,0,1,565.105,169.2832Zm4.06543-21.47852q0,8.40454,5.38281,13.67822a17.4731,17.4731,0,0,0,12.63477,5.27344,16.31658,16.31658,0,0,0,12.30469-5.32861q5.05225-5.3269,5.05371-13.67773a20.06331,20.06331,0,0,0-5.05371-13.95264,16.07658,16.07658,0,0,0-12.415-5.603,16.74559,16.74559,0,0,0-12.63379,5.603A19.64154,19.64154,0,0,0,569.17041,147.80469Z"/><path d="M635.19775,106.66113a7.693,7.693,0,1,1,5.49316,2.30713A7.49949,7.49949,0,0,1,635.19775,106.66113Zm11.53613,70.09277H634.4292V118.30664h12.30469Z"/><path d="M711.88037,176.75391H700.67432v-7.80029q-7.251,8.67993-19.44531,8.6792-9.12158,0-15.10645-5.16357-5.98975-5.16284-5.9873-13.78809,0-8.6228,6.37207-12.90869,6.36914-4.28467,17.248-4.28467H699.686v-2.19727q0-11.644-12.96387-11.64551-8.13281,0-16.91895,5.93262l-5.49316-7.69043A37.83832,37.83832,0,0,1,688.48,117.42773q10.32422,0,16.86328,5.21826,6.53613,5.21924,6.53711,16.4248ZM699.57568,155.001v-4.94385H685.73291q-13.29492,0-13.293,8.34961a7.42278,7.42278,0,0,0,3.2959,6.53662q3.2959,2.25366,9.17285,2.25244a16.64785,16.64785,0,0,0,10.27246-3.2959A10.54843,10.54843,0,0,0,699.57568,155.001Z"/><circle class="cls-1" cx="108.11963" cy="129.5" r="108"/><circle class="cls-2" cx="216.61963" cy="22" r="21.5"/></svg>