<svg width="712" height="238" viewBox="0 0 712 238" fill="none" xmlns="http://www.w3.org/2000/svg">
<path d="M354.214 107.57C346.45 115.15 336.855 118.941 325.43 118.941C314.004 118.941 304.409 115.15 296.646 107.57C288.881 99.989 285 90.5408 285 79.2249C285 67.909 288.882 58.4607 296.646 50.8802C304.408 43.2996 314.003 39.5092 325.43 39.5091C336.855 39.5091 346.45 43.2994 354.214 50.8802C361.977 58.4607 365.858 67.909 365.86 79.2249C365.86 90.5408 361.978 99.989 354.214 107.57ZM344.711 59.5047C342.202 56.9316 339.204 54.8866 335.892 53.4904C332.581 52.0941 329.024 51.3748 325.43 51.3748C321.836 51.3748 318.279 52.0941 314.967 53.4904C311.656 54.8866 308.658 56.9316 306.149 59.5047C301.105 64.8316 298.293 71.8889 298.293 79.2251C298.293 86.5614 301.105 93.6187 306.149 98.9456C308.658 101.519 311.656 103.564 314.967 104.96C318.279 106.356 321.836 107.075 325.43 107.075C329.024 107.075 332.581 106.356 335.892 104.96C339.204 103.564 342.202 101.519 344.711 98.9456C349.755 93.6187 352.566 86.5614 352.566 79.2251C352.566 71.8889 349.755 64.8316 344.711 59.5047V59.5047Z" fill="black"/>
<path d="M392.776 86.531V118.172H380.471V59.7244H392.776V70.3811C394.51 66.8175 397.288 63.8667 400.741 61.9217C404.225 59.8896 408.189 58.8274 412.222 58.8455C421.45 58.8455 427.712 62.6541 431.008 70.2713C436.794 62.6546 444.009 58.846 452.652 58.8455C459.244 58.8455 464.572 60.8596 468.636 64.888C472.703 68.9168 474.735 74.7395 474.734 82.3562V118.172H462.429V86.0916C462.429 75.325 457.962 69.9417 449.027 69.9417C445.013 69.8823 441.119 71.3107 438.095 73.9515C434.981 76.6263 433.351 80.5265 433.206 85.6521V118.172H420.901V86.0916C420.901 80.5261 419.912 76.4428 417.935 73.8416C415.957 71.2429 412.844 69.943 408.596 69.9417C404.494 69.8865 400.525 71.3993 397.5 74.1712C394.35 76.9915 392.775 81.1114 392.776 86.531Z" fill="black"/>
<path d="M545.254 94.3313H499.442C499.556 96.3761 500.141 98.3669 501.151 100.149C502.161 101.93 503.569 103.455 505.264 104.603C508.836 107.199 513.154 108.568 517.569 108.504C524.892 108.504 530.458 106.197 534.268 101.582L541.299 109.273C535 115.792 526.796 119.052 516.69 119.051C512.834 119.132 509.001 118.45 505.409 117.045C501.818 115.641 498.539 113.541 495.761 110.866C490.01 105.41 487.136 98.0862 487.137 88.8929C487.137 79.7024 490.067 72.3966 495.926 66.9754C501.503 61.666 508.936 58.7482 516.635 58.8455C524.049 58.6555 531.27 61.2191 536.905 66.0413C542.47 70.8391 545.253 77.4493 545.254 85.8719L545.254 94.3313ZM499.442 84.6633H532.95C532.95 79.7571 531.412 75.9851 528.335 73.3474C525.161 70.675 521.112 69.2668 516.964 69.3923C512.569 69.3553 508.29 70.8073 504.825 73.5119C503.09 74.7949 501.694 76.4804 500.757 78.4231C499.819 80.3658 499.368 82.5074 499.442 84.6633V84.6633Z" fill="black"/>
<path d="M564.272 110.701C558.779 105.136 556.032 97.8113 556.033 88.7283C556.033 79.6472 558.852 72.3963 564.492 66.9754C567.143 64.3488 570.292 62.2771 573.753 60.8812C577.215 59.4853 580.92 58.7932 584.652 58.8455C592.452 58.8455 598.732 62.1414 603.494 68.7332V36.6526H615.798V118.172H603.494V109.383C598.951 115.828 592.322 119.051 583.608 119.051C579.984 119.066 576.395 118.333 573.068 116.896C569.74 115.459 566.746 113.35 564.272 110.701V110.701ZM568.337 89.2224C568.337 94.8255 570.132 99.3849 573.72 102.901C575.363 104.585 577.329 105.92 579.5 106.826C581.671 107.733 584.002 108.191 586.355 108.174C588.666 108.208 590.959 107.751 593.08 106.832C595.201 105.914 597.103 104.555 598.66 102.845C602.028 99.2942 603.712 94.735 603.713 89.1678C603.874 84.0419 602.066 79.0492 598.66 75.2151C597.127 73.4294 595.22 72.002 593.075 71.0338C590.93 70.0657 588.598 69.5804 586.245 69.6121C583.861 69.5932 581.502 70.0832 579.323 71.0495C577.144 72.0157 575.197 73.4359 573.611 75.2151C570.073 79.0052 568.178 84.0403 568.337 89.2224V89.2224Z" fill="black"/>
<path d="M634.365 48.0789C633.121 46.8103 632.355 45.1504 632.196 43.381C632.037 41.6115 632.495 39.8416 633.493 38.3718C634.491 36.902 635.967 35.8229 637.67 35.3176C639.373 34.8124 641.199 34.9123 642.837 35.6002C644.475 36.2881 645.824 37.5218 646.656 39.0917C647.488 40.6615 647.75 42.4709 647.399 44.2124C647.048 45.954 646.106 47.5204 644.731 48.6458C643.356 49.7711 641.634 50.386 639.858 50.386C638.833 50.3971 637.817 50.1982 636.872 49.8014C635.928 49.4045 635.074 48.8183 634.365 48.0789V48.0789ZM645.901 118.172H633.596V59.7244H645.901V118.172Z" fill="black"/>
<path d="M711.047 118.172H699.841V110.371C695.007 116.158 688.526 119.051 680.396 119.051C674.315 119.051 669.279 117.329 665.29 113.887C661.296 110.445 659.301 105.849 659.302 100.099C659.302 94.3504 661.426 90.0475 665.674 87.1902C669.92 84.3338 675.67 82.9055 682.922 82.9055H698.853V80.7083C698.853 72.9456 694.532 69.0638 685.889 69.0628C680.467 69.0628 674.828 71.0403 668.97 74.9954L663.477 67.305C670.306 61.7617 678.852 58.7705 687.647 58.8455C694.53 58.8455 700.151 60.5849 704.51 64.0637C708.868 67.5432 711.047 73.0182 711.047 80.4885V118.172ZM698.743 96.4188V91.4749H684.9C676.037 91.4749 671.606 94.2581 671.607 99.8245C671.544 101.106 671.815 102.382 672.393 103.527C672.971 104.673 673.835 105.649 674.903 106.361C677.1 107.864 680.158 108.614 684.076 108.614C687.771 108.686 691.385 107.526 694.348 105.318C695.754 104.309 696.891 102.969 697.657 101.417C698.424 99.8654 698.796 98.1488 698.743 96.4188V96.4188Z" fill="black"/>
<path d="M108.12 237.5C167.766 237.5 216.12 189.147 216.12 129.5C216.12 69.8532 167.766 21.5 108.12 21.5C48.4729 21.5 0.119629 69.8532 0.119629 129.5C0.119629 189.147 48.4729 237.5 108.12 237.5Z" fill="url(#paint0_linear)"/>
<path d="M216.62 43.5C228.494 43.5 238.12 33.8741 238.12 22C238.12 10.1259 228.494 0.5 216.62 0.5C204.746 0.5 195.12 10.1259 195.12 22C195.12 33.8741 204.746 43.5 216.62 43.5Z" fill="url(#paint1_linear)"/>
<path d="M454.071 213.64V154.12H465.471L466.551 165.4C468.631 161.48 471.511 158.4 475.191 156.16C478.951 153.84 483.471 152.68 488.751 152.68V166H485.271C481.751 166 478.591 166.6 475.791 167.8C473.071 168.92 470.871 170.88 469.191 173.68C467.591 176.4 466.791 180.2 466.791 185.08V213.64H454.071Z" fill="black"/>
<path d="M524.617 213.64C518.777 213.64 514.137 212.24 510.697 209.44C507.257 206.56 505.537 201.48 505.537 194.2V164.8H495.337V154.12H505.537L507.097 139H518.257V154.12H535.057V164.8H518.257V194.2C518.257 197.48 518.937 199.76 520.297 201.04C521.737 202.24 524.177 202.84 527.617 202.84H534.457V213.64H524.617Z" fill="black"/>
<path d="M436.745 213.328H425.539V205.527C420.705 211.314 414.223 214.207 406.094 214.206C400.013 214.206 394.977 212.485 390.987 209.043C386.994 205.601 384.998 201.005 385 195.255C385 189.506 387.124 185.203 391.372 182.346C395.618 179.49 401.367 178.061 408.62 178.061H424.551V175.864C424.551 168.102 420.229 164.22 411.587 164.219C406.165 164.219 400.525 166.196 394.668 170.151L389.175 162.461C396.003 156.918 404.55 153.926 413.345 154.001C420.228 154.001 425.849 155.741 430.208 159.22C434.565 162.699 436.744 168.174 436.745 175.644V213.328ZM424.44 191.575V186.631H410.598C401.734 186.631 397.303 189.414 397.305 194.98C397.242 196.262 397.513 197.538 398.091 198.683C398.668 199.829 399.533 200.805 400.601 201.517C402.798 203.019 405.855 203.77 409.773 203.769C413.468 203.842 417.082 202.682 420.046 200.474C421.452 199.465 422.589 198.125 423.355 196.573C424.121 195.021 424.494 193.305 424.44 191.575V191.575Z" fill="black"/>
<path d="M282.56 177.96C282.56 169.64 284.36 162.44 287.96 156.36C291.64 150.36 296.72 145.72 303.2 142.44C309.76 139.16 317.32 137.52 325.88 137.52C334.52 137.52 342.08 139.16 348.56 142.44C355.12 145.72 360.24 150.36 363.92 156.36C367.6 162.44 369.44 169.64 369.44 177.96C369.44 187.8 367.04 195.84 362.24 202.08C357.44 208.32 350.72 212.28 342.08 213.96V199.8C346.96 198.68 350.84 196.28 353.72 192.6C356.6 188.92 358.04 184 358.04 177.84C358.04 169.44 355.16 162.8 349.4 157.92C343.72 153.04 335.88 150.6 325.88 150.6C315.96 150.6 308.16 153.04 302.48 157.92C296.8 162.8 293.96 169.44 293.96 177.84C293.96 184 295.32 188.92 298.04 192.6C300.76 196.28 304.48 198.68 309.2 199.8V213.96C300.88 212.28 294.36 208.32 289.64 202.08C284.92 195.84 282.56 187.8 282.56 177.96Z" fill="black"/>
<defs>
<linearGradient id="paint0_linear" x1="14.5733" y1="183.509" x2="201.666" y2="75.491" gradientUnits="userSpaceOnUse">
<stop stop-color="#FFB593"/>
<stop offset="0.8" stop-color="#F5322D"/>
</linearGradient>
<linearGradient id="paint1_linear" x1="197.997" y1="32.7518" x2="235.242" y2="11.2482" gradientUnits="userSpaceOnUse">
<stop offset="0.2" stop-color="#F5322D"/>
<stop offset="1" stop-color="#FFB593"/>
</linearGradient>
</defs>
</svg>
